<svg width="1089" height="222" viewBox="0 0 1089 222" fill="none" xmlns="http://www.w3.org/2000/svg">
<path d="M26.75 61.6587C24.1412 60.7364 21.8826 59.0276 20.2857 56.7679C18.6887 54.5081 17.8319 51.8087 17.8333 49.0417C17.8333 47.8592 17.3636 46.7252 16.5275 45.8891C15.6914 45.053 14.5574 44.5833 13.375 44.5833C12.1926 44.5833 11.0586 45.053 10.2225 45.8891C9.38637 46.7252 8.91666 47.8592 8.91666 49.0417C8.91889 53.3771 10.1853 57.6179 12.5609 61.2446C14.9365 64.8713 18.3181 67.7266 22.2917 69.4608C23.6138 66.7698 25.1028 64.164 26.75 61.6587ZM200.625 84.7083C197.66 84.7297 194.761 83.8385 192.321 82.1556C189.88 80.4727 188.016 78.0797 186.982 75.3012C183.947 66.8239 179.517 58.913 173.875 51.895V50.29L186.626 29.0237C186.986 28.4949 187.228 27.8946 187.336 27.2638C187.444 26.633 187.414 25.9864 187.25 25.3679C187.057 24.7668 186.739 24.2136 186.316 23.7447C185.893 23.2759 185.376 22.9022 184.798 22.6483C183.55 22.1133 155.284 10.165 137.45 25.9475C127.564 23.0948 117.281 21.8602 107 22.2917C94.4088 22.4083 81.9654 25.0174 70.3879 29.9682C58.8103 34.9191 48.3279 42.1138 39.5454 51.1371C36.2763 54.6366 33.2944 58.3937 30.6287 62.3721C28.8467 65.0141 27.2383 67.7692 25.8137 70.62C20.2854 80.88 17.5344 92.4067 17.8333 104.057C18.9216 122.708 26.8601 140.3 40.125 153.456V182.792C40.125 183.974 40.5947 185.108 41.4308 185.944C42.2669 186.78 43.4009 187.25 44.5833 187.25H74.2312C75.2034 187.301 76.1656 187.032 76.9706 186.484C77.7756 185.937 78.3794 185.141 78.6896 184.218C80.25 179.448 83.8167 173.875 89.1666 173.875H120.375C123.334 173.838 126.204 174.885 128.445 176.818C131.176 179.27 133.534 182.109 135.444 185.244C135.848 185.857 136.397 186.361 137.043 186.711C137.688 187.061 138.41 187.246 139.145 187.25H164.958C165.545 187.253 166.127 187.141 166.67 186.919C167.213 186.697 167.707 186.37 168.124 185.957C168.537 185.54 168.864 185.046 169.086 184.503C169.308 183.96 169.42 183.378 169.417 182.792V153.099C171.289 150.647 175.525 144.985 177.486 142.176C178.564 140.607 179.943 139.267 181.542 138.234C183.142 137.201 184.93 136.495 186.804 136.157L201.383 133.75C202.43 133.57 203.378 133.021 204.056 132.204C204.734 131.387 205.099 130.354 205.083 129.292V89.1667C205.083 87.9842 204.614 86.8502 203.777 86.0141C202.941 85.178 201.807 84.7083 200.625 84.7083ZM141.909 55.9521C141.505 56.5654 140.956 57.0694 140.31 57.4194C139.665 57.7694 138.943 57.9545 138.208 57.9583C137.332 57.9683 136.474 57.7033 135.756 57.2004C127.049 52.0133 117.134 49.2002 107 49.0417C96.8609 49.1644 86.9366 51.9801 78.2437 57.2004C77.2648 57.7255 76.1252 57.8662 75.0479 57.5951C73.9707 57.3239 73.0335 56.6603 72.4199 55.7343C71.8063 54.8083 71.5604 53.6866 71.7306 52.5889C71.9007 51.4911 72.4745 50.4964 73.3396 49.7996C83.4771 43.5871 95.1109 40.2433 107 40.125C118.889 40.2433 130.523 43.5871 140.66 49.7996C141.638 50.4533 142.317 51.4666 142.551 52.6189C142.785 53.7712 142.554 54.9692 141.909 55.9521ZM158.271 80.25C156.948 80.25 155.655 79.8578 154.555 79.1229C153.456 78.3881 152.599 77.3437 152.092 76.1217C151.586 74.8997 151.454 73.5551 151.712 72.2578C151.97 70.9606 152.607 69.769 153.542 68.8337C154.477 67.8984 155.669 67.2615 156.966 67.0035C158.263 66.7454 159.608 66.8779 160.83 67.384C162.052 67.8902 163.096 68.7474 163.831 69.8471C164.566 70.9469 164.958 72.2398 164.958 73.5625C164.958 75.3361 164.254 77.0371 163 78.2913C161.745 79.5454 160.044 80.25 158.271 80.25Z" fill="#59B08F"/>
<path d="M236.746 48.3157C239.833 48.2014 242.662 48.1157 245.234 48.0586C247.806 47.9442 250.292 47.8871 252.692 47.8871C255.093 47.8299 257.493 47.8014 259.894 47.8014C262.294 47.8014 264.866 47.8014 267.61 47.8014C277.383 47.8014 285.471 48.6587 291.872 50.3733C298.273 52.0308 303.331 54.3455 307.046 57.3176C310.818 60.2324 313.448 63.7188 314.934 67.7768C316.42 71.8348 317.163 76.2642 317.163 81.0652C317.163 88.2666 315.734 94.2964 312.876 99.1546C310.018 103.956 305.789 108.071 300.188 111.5C308.589 114.3 314.734 118.444 318.62 123.931C322.564 129.361 324.536 136.333 324.536 144.849C324.536 150.965 323.478 156.423 321.363 161.224C319.249 165.968 315.934 170.026 311.419 173.398C306.961 176.713 301.188 179.256 294.101 181.028C287.071 182.743 278.612 183.6 268.724 183.6C263.809 183.6 258.665 183.572 253.293 183.514C247.977 183.457 242.462 183.286 236.746 183V48.3157ZM257.836 105.327C259.494 105.442 261.066 105.527 262.552 105.584C264.095 105.642 265.552 105.67 266.924 105.67C272.639 105.67 277.383 105.127 281.155 104.041C284.928 102.898 287.928 101.384 290.157 99.4975C292.443 97.5542 294.044 95.2966 294.958 92.7247C295.873 90.0956 296.33 87.3236 296.33 84.4087C296.33 81.4367 295.844 78.7504 294.872 76.35C293.958 73.9495 292.415 71.9205 290.243 70.263C288.071 68.5484 285.156 67.2338 281.498 66.3194C277.84 65.4049 273.325 64.9477 267.953 64.9477C266.467 64.9477 264.866 64.9762 263.152 65.0334C261.437 65.0906 259.665 65.1763 257.836 65.2906V105.327ZM257.922 166.111C259.865 166.225 261.723 166.34 263.495 166.454C265.266 166.511 266.981 166.54 268.639 166.54C275.497 166.54 281.184 165.997 285.699 164.911C290.214 163.768 293.786 162.196 296.416 160.195C299.102 158.138 300.988 155.737 302.074 152.994C303.16 150.193 303.703 147.164 303.703 143.906C303.703 136.305 301.017 130.475 295.644 126.417C290.271 122.359 281.956 120.33 270.696 120.33C268.696 120.33 266.638 120.416 264.523 120.587C262.409 120.702 260.208 120.873 257.922 121.102L257.836 121.016V166.197L257.922 166.111ZM349.824 85.6947H368.084L369.285 96.9255C372.428 92.8104 376.257 89.6098 380.773 87.3236C385.345 84.9803 390.403 83.8086 395.947 83.8086C398.176 83.8086 399.719 84.0086 400.577 84.4087V106.099C398.633 105.127 396.376 104.47 393.804 104.127C391.232 103.784 388.574 103.841 385.831 104.298C383.087 104.756 380.373 105.699 377.686 107.128C375.057 108.499 372.685 110.414 370.571 112.872V183H349.824V85.6947ZM412.662 156.595C412.662 146.078 416.291 138.077 423.55 132.59C430.866 127.046 441.611 124.274 455.785 124.274H468.13V118.959C468.13 115.815 467.759 113.072 467.016 110.728C466.33 108.328 465.187 106.327 463.587 104.727C462.043 103.127 459.986 101.927 457.414 101.126C454.899 100.269 451.813 99.8404 448.155 99.8404C445.64 99.8404 443.268 100.04 441.039 100.441C438.81 100.841 436.61 101.384 434.438 102.069C432.266 102.755 430.037 103.584 427.751 104.556C425.522 105.527 423.15 106.556 420.635 107.642V90.5814C422.864 89.4955 425.15 88.5238 427.494 87.6665C429.837 86.8092 432.323 86.0948 434.952 85.5232C437.581 84.8945 440.382 84.4373 443.354 84.1515C446.326 83.8658 449.555 83.7229 453.042 83.7229C465.101 83.7229 474.074 86.7806 479.961 92.8961C485.905 99.0117 488.877 107.928 488.877 119.644V160.71C488.877 162.825 488.877 164.796 488.877 166.625C488.877 168.454 488.934 170.255 489.049 172.026C489.22 173.798 489.477 175.599 489.82 177.427C490.163 179.199 490.678 181.057 491.364 183H470.188C469.616 181.457 469.188 179.799 468.902 178.028C468.616 176.256 468.416 174.455 468.302 172.626C465.273 176.399 461.586 179.399 457.242 181.628C452.956 183.857 447.926 184.972 442.154 184.972C437.696 184.972 433.638 184.2 429.98 182.657C426.379 181.114 423.293 179.056 420.721 176.484C418.149 173.855 416.148 170.826 414.72 167.397C413.348 163.968 412.662 160.367 412.662 156.595ZM433.666 153.766C433.666 155.652 433.952 157.509 434.524 159.338C435.095 161.11 435.981 162.71 437.181 164.139C438.439 165.568 440.039 166.711 441.982 167.568C443.925 168.426 446.269 168.854 449.012 168.854C452.499 168.854 455.899 168.14 459.214 166.711C462.529 165.282 465.501 163.11 468.13 160.195V138.248H456.557C452.27 138.248 448.669 138.62 445.754 139.363C442.839 140.106 440.468 141.163 438.639 142.535C436.867 143.906 435.581 145.564 434.781 147.507C434.038 149.393 433.666 151.479 433.666 153.766ZM529.768 64.2618C527.711 64.2618 525.853 63.9475 524.196 63.3188C522.538 62.6901 521.11 61.8042 519.909 60.6611C518.709 59.518 517.795 58.1463 517.166 56.546C516.537 54.9457 516.223 53.1739 516.223 51.2306C516.223 49.2874 516.537 47.5442 517.166 46.001C517.795 44.4007 518.709 43.029 519.909 41.8859C521.11 40.7428 522.538 39.8569 524.196 39.2282C525.853 38.5995 527.711 38.2852 529.768 38.2852C533.998 38.2852 537.341 39.4854 539.799 41.8859C542.314 44.2292 543.571 47.3441 543.571 51.2306C543.571 55.1171 542.314 58.2606 539.799 60.6611C537.341 63.0616 533.998 64.2618 529.768 64.2618ZM519.481 85.6947H540.056V183H519.481V85.6947ZM571.26 85.6947H589.521L590.721 96.5826C593.693 92.7533 597.494 89.6669 602.123 87.3236C606.81 84.9803 612.525 83.8086 619.269 83.8086C629.271 83.8086 637.016 86.8664 642.503 92.9819C647.989 99.0974 650.733 108.442 650.733 121.016V183H629.986V121.702C629.986 114.272 628.557 108.785 625.699 105.241C622.842 101.641 618.812 99.8404 613.611 99.8404C609.325 99.8404 605.324 100.755 601.609 102.584C597.894 104.356 594.693 107.099 592.007 110.814V183H571.26V85.6947ZM683.994 48.3157C687.08 48.2014 689.909 48.1157 692.481 48.0586C695.053 47.9442 697.54 47.8871 699.94 47.8871C702.34 47.8299 704.741 47.8014 707.141 47.8014C709.542 47.8014 712.114 47.8014 714.857 47.8014C724.631 47.8014 732.718 48.6587 739.119 50.3733C745.521 52.0308 750.579 54.3455 754.294 57.3176C758.066 60.2324 760.695 63.7188 762.181 67.7768C763.667 71.8348 764.41 76.2642 764.41 81.0652C764.41 88.2666 762.981 94.2964 760.124 99.1546C757.266 103.956 753.036 108.071 747.435 111.5C755.837 114.3 761.981 118.444 765.868 123.931C769.811 129.361 771.783 136.333 771.783 144.849C771.783 150.965 770.726 156.423 768.611 161.224C766.496 165.968 763.181 170.026 758.666 173.398C754.208 176.713 748.435 179.256 741.348 181.028C734.318 182.743 725.859 183.6 715.972 183.6C711.057 183.6 705.913 183.572 700.54 183.514C695.225 183.457 689.709 183.286 683.994 183V48.3157ZM705.084 105.327C706.741 105.442 708.313 105.527 709.799 105.584C711.342 105.642 712.8 105.67 714.171 105.67C719.887 105.67 724.631 105.127 728.403 104.041C732.175 102.898 735.176 101.384 737.405 99.4975C739.691 97.5542 741.291 95.2966 742.206 92.7247C743.12 90.0956 743.577 87.3236 743.577 84.4087C743.577 81.4367 743.092 78.7504 742.12 76.35C741.205 73.9495 739.662 71.9205 737.49 70.263C735.319 68.5484 732.404 67.2338 728.746 66.3194C725.088 65.4049 720.573 64.9477 715.2 64.9477C713.714 64.9477 712.114 64.9762 710.399 65.0334C708.685 65.0906 706.913 65.1763 705.084 65.2906V105.327ZM705.17 166.111C707.113 166.225 708.97 166.34 710.742 166.454C712.514 166.511 714.229 166.54 715.886 166.54C722.745 166.54 728.431 165.997 732.947 164.911C737.462 163.768 741.034 162.196 743.663 160.195C746.349 158.138 748.235 155.737 749.321 152.994C750.407 150.193 750.95 147.164 750.95 143.906C750.95 136.305 748.264 130.475 742.891 126.417C737.519 122.359 729.203 120.33 717.944 120.33C715.943 120.33 713.886 120.416 711.771 120.587C709.656 120.702 707.456 120.873 705.17 121.102L705.084 121.016V166.197L705.17 166.111ZM789.698 156.595C789.698 146.078 793.327 138.077 800.586 132.59C807.902 127.046 818.647 124.274 832.821 124.274H845.166V118.959C845.166 115.815 844.795 113.072 844.052 110.728C843.366 108.328 842.223 106.327 840.623 104.727C839.08 103.127 837.022 101.927 834.45 101.126C831.935 100.269 828.849 99.8404 825.191 99.8404C822.676 99.8404 820.304 100.04 818.075 100.441C815.846 100.841 813.646 101.384 811.474 102.069C809.302 102.755 807.073 103.584 804.787 104.556C802.558 105.527 800.186 106.556 797.671 107.642V90.5814C799.9 89.4955 802.186 88.5238 804.53 87.6665C806.873 86.8092 809.359 86.0948 811.988 85.5232C814.617 84.8945 817.418 84.4373 820.39 84.1515C823.362 83.8658 826.591 83.7229 830.078 83.7229C842.137 83.7229 851.11 86.7806 856.997 92.8961C862.941 99.0117 865.913 107.928 865.913 119.644V160.71C865.913 162.825 865.913 164.796 865.913 166.625C865.913 168.454 865.971 170.255 866.085 172.026C866.256 173.798 866.514 175.599 866.857 177.427C867.199 179.199 867.714 181.057 868.4 183H847.224C846.652 181.457 846.224 179.799 845.938 178.028C845.652 176.256 845.452 174.455 845.338 172.626C842.309 176.399 838.622 179.399 834.279 181.628C829.992 183.857 824.962 184.972 819.19 184.972C814.732 184.972 810.674 184.2 807.016 182.657C803.415 181.114 800.329 179.056 797.757 176.484C795.185 173.855 793.185 170.826 791.756 167.397C790.384 163.968 789.698 160.367 789.698 156.595ZM810.702 153.766C810.702 155.652 810.988 157.509 811.56 159.338C812.131 161.11 813.017 162.71 814.217 164.139C815.475 165.568 817.075 166.711 819.018 167.568C820.962 168.426 823.305 168.854 826.048 168.854C829.535 168.854 832.935 168.14 836.25 166.711C839.565 165.282 842.537 163.11 845.166 160.195V138.248H833.593C829.306 138.248 825.705 138.62 822.791 139.363C819.876 140.106 817.504 141.163 815.675 142.535C813.903 143.906 812.617 145.564 811.817 147.507C811.074 149.393 810.702 151.479 810.702 153.766ZM895.574 85.6947H913.835L915.035 96.5826C918.007 92.7533 921.808 89.6669 926.437 87.3236C931.124 84.9803 936.839 83.8086 943.583 83.8086C953.585 83.8086 961.33 86.8664 966.817 92.9819C972.304 99.0974 975.047 108.442 975.047 121.016V183H954.3V121.702C954.3 114.272 952.871 108.785 950.013 105.241C947.156 101.641 943.126 99.8404 937.925 99.8404C933.639 99.8404 929.638 100.755 925.923 102.584C922.208 104.356 919.007 107.099 916.321 110.814V183H895.574V85.6947ZM1005.22 36.3133H1025.97V124.617L1058.38 85.6947H1082.55L1048.09 123.502L1088.3 183H1065.06L1034.97 137.819L1025.97 147.764V183H1005.22V36.3133Z" fill="#061A33"/>
</svg>
